<?xml version="1.0" encoding="utf-8" ?>
<svg baseProfile="tiny" height="100%" version="1.2" width="100%" xmlns="http://www.w3.org/2000/svg" xmlns:ev="http://www.w3.org/2001/xml-events" xmlns:xlink="http://www.w3.org/1999/xlink"><defs /><g><rect fill="none" height="65" opacity="1" stroke="black" width="65" x="195" y="0" /><circle cx="227.5" cy="32.5" fill="black" r="1.3" /></g><g><rect fill="none" height="65" opacity="1" stroke="black" width="65" x="780" y="0" /><circle cx="812.5" cy="32.5" fill="black" r="1.3" /></g><g><rect fill="none" height="65" opacity="1" stroke="black" width="65" x="130" y="8.45" /><circle cx="162.5" cy="40.95" fill="black" r="1.3" /></g><g><rect fill="none" height="65" opacity="1" stroke="black" width="65" x="260" y="8.45" /><circle cx="292.5" cy="40.95" fill="black" r="1.3" /></g><g><rect fill="none" height="65" opacity="1" stroke="black" width="65" x="715" y="8.45" /><circle cx="747.5" cy="40.95" fill="black" r="1.3" /></g><g><rect fill="none" height="65" opacity="1" stroke="black" width="65" x="845" y="8.45" /><circle cx="877.5" cy="40.95" fill="black" r="1.3" /></g><g><rect fill="none" height="65" opacity="1" stroke="black" width="65" x="325" y="16.25" /><circle cx="357.5" cy="48.75" fill="black" r="1.3" /></g><g><rect fill="none" height="65" opacity="1" stroke="black" width="65" x="650" y="16.25" /><circle cx="682.5" cy="48.75" fill="black" r="1.3" /></g><g><rect fill="none" height="65" opacity="1" stroke="black" width="65" x="0" y="24.7" /><circle cx="32.5" cy="57.2" fill="black" r="1.3" /></g><g><rect fill="none" height="65" opacity="1" stroke="black" width="65" x="65" y="24.7" /><circle cx="97.5" cy="57.2" fill="black" r="1.3" /></g><g><rect fill="none" height="65" opacity="1" stroke="black" width="65" x="910" y="24.7" /><circle cx="942.5" cy="57.2" fill="black" r="1.3" /></g><g><rect fill="none" height="65" opacity="1" stroke="black" width="65" x="975" y="24.7" /><circle cx="1007.5" cy="57.2" fill="black" r="1.3" /></g><g><rect fill="none" height="65" opacity="1" stroke="black" width="65" x="195" y="65.0" /><circle cx="227.5" cy="97.5" fill="black" r="1.3" /></g><g><rect fill="none" height="65" opacity="1" stroke="black" width="65" x="780" y="65.0" /><circle cx="812.5" cy="97.5" fill="black" r="1.3" /></g><g><rect fill="none" height="65" opacity="1" stroke="black" width="65" x="130" y="73.45" /><circle cx="162.5" cy="105.95" fill="black" r="1.3" /></g><g><rect fill="none" height="65" opacity="1" stroke="black" width="65" x="260" y="73.45" /><circle cx="292.5" cy="105.95" fill="black" r="1.3" /></g><g><rect fill="none" height="65" opacity="1" stroke="black" width="65" x="715" y="73.45" /><circle cx="747.5" cy="105.95" fill="black" r="1.3" /></g><g><rect fill="none" height="65" opacity="1" stroke="black" width="65" x="845" y="73.45" /><circle cx="877.5" cy="105.95" fill="black" r="1.3" /></g><g><rect fill="none" height="65" opacity="1" stroke="black" width="65" x="325" y="81.25" /><circle cx="357.5" cy="113.75" fill="black" r="1.3" /></g><g><rect fill="none" height="65" opacity="1" stroke="black" width="65" x="650" y="81.25" /><circle cx="682.5" cy="113.75" fill="black" r="1.3" /></g><g><rect fill="none" height="65" opacity="1" stroke="black" width="65" x="0" y="89.7" /><circle cx="32.5" cy="122.2" fill="black" r="1.3" /></g><g><rect fill="none" height="65" opacity="1" stroke="black" width="65" x="65" y="89.7" /><circle cx="97.5" cy="122.2" fill="black" r="1.3" /></g><g><rect fill="none" height="65" opacity="1" stroke="black" width="65" x="910" y="89.7" /><circle cx="942.5" cy="122.2" fill="black" r="1.3" /></g><g><rect fill="none" height="65" opacity="1" stroke="black" width="65" x="975" y="89.7" /><circle cx="1007.5" cy="122.2" fill="black" r="1.3" /></g><g><rect fill="none" height="65" opacity="1" stroke="black" width="65" x="195" y="130.0" /><circle cx="227.5" cy="162.5" fill="black" r="1.3" /></g><g><rect fill="none" height="65" opacity="1" stroke="black" width="65" x="780" y="130.0" /><circle cx="812.5" cy="162.5" fill="black" r="1.3" /></g><g><rect fill="none" height="65" opacity="1" stroke="black" width="65" x="130" y="138.45" /><circle cx="162.5" cy="170.95" fill="black" r="1.3" /></g><g><rect fill="none" height="65" opacity="1" stroke="black" width="65" x="260" y="138.45" /><circle cx="292.5" cy="170.95" fill="black" r="1.3" /></g><g><rect fill="none" height="65" opacity="1" stroke="black" width="65" x="715" y="138.45" /><circle cx="747.5" cy="170.95" fill="black" r="1.3" /></g><g><rect fill="none" height="65" opacity="1" stroke="black" width="65" x="845" y="138.45" /><circle cx="877.5" cy="170.95" fill="black" r="1.3" /></g><g><rect fill="none" height="65" opacity="1" stroke="black" width="65" x="325" y="146.25" /><circle cx="357.5" cy="178.75" fill="black" r="1.3" /></g><g><rect fill="none" height="65" opacity="1" stroke="black" width="65" x="650" y="146.25" /><circle cx="682.5" cy="178.75" fill="black" r="1.3" /></g><g><rect fill="none" height="65" opacity="1" stroke="black" width="65" x="0" y="154.7" /><circle cx="32.5" cy="187.2" fill="black" r="1.3" /></g><g><rect fill="none" height="65" opacity="1" stroke="black" width="65" x="65" y="154.7" /><circle cx="97.5" cy="187.2" fill="black" r="1.3" /></g><g><rect fill="none" height="65" opacity="1" stroke="black" width="65" x="910" y="154.7" /><circle cx="942.5" cy="187.2" fill="black" r="1.3" /></g><g><rect fill="none" height="65" opacity="1" stroke="black" width="65" x="975" y="154.7" /><circle cx="1007.5" cy="187.2" fill="black" r="1.3" /></g><g><rect fill="none" height="65" opacity="1" stroke="black" width="65" x="195" y="195.0" /><circle cx="227.5" cy="227.5" fill="black" r="1.3" /></g><g><rect fill="none" height="65" opacity="1" stroke="black" width="65" x="780" y="195.0" /><circle cx="812.5" cy="227.5" fill="black" r="1.3" /></g><g><rect fill="none" height="65" opacity="1" stroke="black" width="65" x="130" y="203.45" /><circle cx="162.5" cy="235.95" fill="black" r="1.3" /></g><g><rect fill="none" height="65" opacity="1" stroke="black" width="65" x="260" y="203.45" /><circle cx="292.5" cy="235.95" fill="black" r="1.3" /></g><g><rect fill="none" height="65" opacity="1" stroke="black" width="65" x="715" y="203.45" /><circle cx="747.5" cy="235.95" fill="black" r="1.3" /></g><g><rect fill="none" height="65" opacity="1" stroke="black" width="65" x="845" y="203.45" /><circle cx="877.5" cy="235.95" fill="black" r="1.3" /></g><g><rect fill="none" height="65" opacity="1" stroke="black" width="65" x="325" y="211.25" /><circle cx="357.5" cy="243.75" fill="black" r="1.3" /></g><g><rect fill="none" height="65" opacity="1" stroke="black" width="65" x="650" y="211.25" /><circle cx="682.5" cy="243.75" fill="black" r="1.3" /></g><g><rect fill="none" height="65" opacity="1" stroke="black" width="65" x="0" y="219.7" /><circle cx="32.5" cy="252.2" fill="black" r="1.3" /></g><g><rect fill="none" height="65" opacity="1" stroke="black" width="65" x="65" y="219.7" /><circle cx="97.5" cy="252.2" fill="black" r="1.3" /></g><g><rect fill="none" height="65" opacity="1" stroke="black" width="65" x="910" y="219.7" /><circle cx="942.5" cy="252.2" fill="black" r="1.3" /></g><g><rect fill="none" height="65" opacity="1" stroke="black" width="65" x="975" y="219.7" /><circle cx="1007.5" cy="252.2" fill="black" r="1.3" /></g><g><rect fill="none" height="65" opacity="1" stroke="black" width="65" x="162.5" y="275.6" /><circle cx="195.0" cy="308.1" fill="black" r="1.3" /></g><g><rect fill="none" height="65" opacity="1" stroke="black" width="65" x="227.5" y="275.6" /><circle cx="260.0" cy="308.1" fill="black" r="1.3" /></g><g><rect fill="none" height="65" opacity="1" stroke="black" width="65" x="747.5" y="276.25" /><circle cx="780.0" cy="308.75" fill="black" r="1.3" /></g><g><rect fill="none" height="65" opacity="1" stroke="black" width="65" x="812.5" y="276.25" /><circle cx="845.0" cy="308.75" fill="black" r="1.3" /></g><g><rect fill="none" height="65" opacity="1" stroke="black" width="65" x="292.5" y="283.4" /><circle cx="325.0" cy="315.9" fill="black" r="1.3" /></g><g><rect fill="none" height="65" opacity="1" stroke="black" width="65" x="357.5" y="283.4" /><circle cx="390.0" cy="315.9" fill="black" r="1.3" /></g><g><rect fill="none" height="65" opacity="1" stroke="black" width="65" x="422.5" y="283.4" /><circle cx="455.0" cy="315.9" fill="black" r="1.3" /></g><g><rect fill="none" height="65" opacity="1" stroke="black" width="65" x="487.5" y="283.4" /><circle cx="520.0" cy="315.9" fill="black" r="1.3" /></g><g><rect fill="none" height="65" opacity="1" stroke="black" width="65" x="552.5" y="283.4" /><circle cx="585.0" cy="315.9" fill="black" r="1.3" /></g><g><rect fill="none" height="65" opacity="1" stroke="black" width="65" x="617.5" y="283.4" /><circle cx="650.0" cy="315.9" fill="black" r="1.3" /></g><g><rect fill="none" height="65" opacity="1" stroke="black" width="65" x="682.5" y="283.4" /><circle cx="715.0" cy="315.9" fill="black" r="1.3" /></g></svg>