<?xml version="1.0" encoding="utf-8" ?>
<svg baseProfile="tiny" height="100%" version="1.2" width="100%" xmlns="http://www.w3.org/2000/svg" xmlns:ev="http://www.w3.org/2001/xml-events" xmlns:xlink="http://www.w3.org/1999/xlink"><defs /><g><rect fill="#c4c8c5" height="50" opacity="1" stroke="black" width="50" x="150" y="0" /><circle cx="175.0" cy="25.0" fill="black" r="1.0" /></g><g><rect fill="#c4c8c5" height="50" opacity="1" stroke="black" width="50" x="600" y="0" /><circle cx="625.0" cy="25.0" fill="black" r="1.0" /></g><g><rect fill="#c4c8c5" height="50" opacity="1" stroke="black" width="50" x="100" y="6.5" /><circle cx="125.0" cy="31.5" fill="black" r="1.0" /></g><g><rect fill="#c4c8c5" height="50" opacity="1" stroke="black" width="50" x="200" y="6.5" /><circle cx="225.0" cy="31.5" fill="black" r="1.0" /></g><g><rect fill="#c4c8c5" height="50" opacity="1" stroke="black" width="50" x="550" y="6.5" /><circle cx="575.0" cy="31.5" fill="black" r="1.0" /></g><g><rect fill="#c4c8c5" height="50" opacity="1" stroke="black" width="50" x="650" y="6.5" /><circle cx="675.0" cy="31.5" fill="black" r="1.0" /></g><g><rect fill="#c4c8c5" height="50" opacity="1" stroke="black" width="50" x="250" y="12.5" /><circle cx="275.0" cy="37.5" fill="black" r="1.0" /></g><g><rect fill="#c4c8c5" height="50" opacity="1" stroke="black" width="50" x="500" y="12.5" /><circle cx="525.0" cy="37.5" fill="black" r="1.0" /></g><g><rect fill="#c4c8c5" height="50" opacity="1" stroke="black" width="50" x="0" y="19.0" /><circle cx="25.0" cy="44.0" fill="black" r="1.0" /></g><g><rect fill="#c4c8c5" height="50" opacity="1" stroke="black" width="50" x="50" y="19.0" /><circle cx="75.0" cy="44.0" fill="black" r="1.0" /></g><g><rect fill="#c4c8c5" height="50" opacity="1" stroke="black" width="50" x="700" y="19.0" /><circle cx="725.0" cy="44.0" fill="black" r="1.0" /></g><g><rect fill="#c4c8c5" height="50" opacity="1" stroke="black" width="50" x="750" y="19.0" /><circle cx="775.0" cy="44.0" fill="black" r="1.0" /></g><g><rect fill="#c4c8c5" height="50" opacity="1" stroke="black" width="50" x="150" y="50.0" /><circle cx="175.0" cy="75.0" fill="black" r="1.0" /></g><g><rect fill="#c4c8c5" height="50" opacity="1" stroke="black" width="50" x="600" y="50.0" /><circle cx="625.0" cy="75.0" fill="black" r="1.0" /></g><g><rect fill="#c4c8c5" height="50" opacity="1" stroke="black" width="50" x="100" y="56.5" /><circle cx="125.0" cy="81.5" fill="black" r="1.0" /></g><g><rect fill="#c4c8c5" height="50" opacity="1" stroke="black" width="50" x="200" y="56.5" /><circle cx="225.0" cy="81.5" fill="black" r="1.0" /></g><g><rect fill="#c4c8c5" height="50" opacity="1" stroke="black" width="50" x="550" y="56.5" /><circle cx="575.0" cy="81.5" fill="black" r="1.0" /></g><g><rect fill="#c4c8c5" height="50" opacity="1" stroke="black" width="50" x="650" y="56.5" /><circle cx="675.0" cy="81.5" fill="black" r="1.0" /></g><g><rect fill="#c4c8c5" height="50" opacity="1" stroke="black" width="50" x="250" y="62.5" /><circle cx="275.0" cy="87.5" fill="black" r="1.0" /></g><g><rect fill="#c4c8c5" height="50" opacity="1" stroke="black" width="50" x="500" y="62.5" /><circle cx="525.0" cy="87.5" fill="black" r="1.0" /></g><g><rect fill="#c4c8c5" height="50" opacity="1" stroke="black" width="50" x="0" y="69.0" /><circle cx="25.0" cy="94.0" fill="black" r="1.0" /></g><g><rect fill="#c4c8c5" height="50" opacity="1" stroke="black" width="50" x="50" y="69.0" /><circle cx="75.0" cy="94.0" fill="black" r="1.0" /></g><g><rect fill="#c4c8c5" height="50" opacity="1" stroke="black" width="50" x="700" y="69.0" /><circle cx="725.0" cy="94.0" fill="black" r="1.0" /></g><g><rect fill="#c4c8c5" height="50" opacity="1" stroke="black" width="50" x="750" y="69.0" /><circle cx="775.0" cy="94.0" fill="black" r="1.0" /></g><g><rect fill="#c4c8c5" height="50" opacity="1" stroke="black" width="50" x="150" y="100.0" /><circle cx="175.0" cy="125.0" fill="black" r="1.0" /></g><g><rect fill="#c4c8c5" height="50" opacity="1" stroke="black" width="50" x="600" y="100.0" /><circle cx="625.0" cy="125.0" fill="black" r="1.0" /></g><g><rect fill="#c4c8c5" height="50" opacity="1" stroke="black" width="50" x="100" y="106.5" /><circle cx="125.0" cy="131.5" fill="black" r="1.0" /></g><g><rect fill="#c4c8c5" height="50" opacity="1" stroke="black" width="50" x="200" y="106.5" /><circle cx="225.0" cy="131.5" fill="black" r="1.0" /></g><g><rect fill="#c4c8c5" height="50" opacity="1" stroke="black" width="50" x="550" y="106.5" /><circle cx="575.0" cy="131.5" fill="black" r="1.0" /></g><g><rect fill="#c4c8c5" height="50" opacity="1" stroke="black" width="50" x="650" y="106.5" /><circle cx="675.0" cy="131.5" fill="black" r="1.0" /></g><g><rect fill="#c4c8c5" height="50" opacity="1" stroke="black" width="50" x="250" y="112.5" /><circle cx="275.0" cy="137.5" fill="black" r="1.0" /></g><g><rect fill="#c4c8c5" height="50" opacity="1" stroke="black" width="50" x="500" y="112.5" /><circle cx="525.0" cy="137.5" fill="black" r="1.0" /></g><g><rect fill="#c4c8c5" height="50" opacity="1" stroke="black" width="50" x="0" y="119.0" /><circle cx="25.0" cy="144.0" fill="black" r="1.0" /></g><g><rect fill="#c4c8c5" height="50" opacity="1" stroke="black" width="50" x="50" y="119.0" /><circle cx="75.0" cy="144.0" fill="black" r="1.0" /></g><g><rect fill="#c4c8c5" height="50" opacity="1" stroke="black" width="50" x="700" y="119.0" /><circle cx="725.0" cy="144.0" fill="black" r="1.0" /></g><g><rect fill="#c4c8c5" height="50" opacity="1" stroke="black" width="50" x="750" y="119.0" /><circle cx="775.0" cy="144.0" fill="black" r="1.0" /></g><g><rect fill="#c4c8c5" height="50" opacity="1" stroke="black" width="50" x="150" y="150.0" /><circle cx="175.0" cy="175.0" fill="black" r="1.0" /></g><g><rect fill="#c4c8c5" height="50" opacity="1" stroke="black" width="50" x="600" y="150.0" /><circle cx="625.0" cy="175.0" fill="black" r="1.0" /></g><g><rect fill="#c4c8c5" height="50" opacity="1" stroke="black" width="50" x="100" y="156.5" /><circle cx="125.0" cy="181.5" fill="black" r="1.0" /></g><g><rect fill="#c4c8c5" height="50" opacity="1" stroke="black" width="50" x="200" y="156.5" /><circle cx="225.0" cy="181.5" fill="black" r="1.0" /></g><g><rect fill="#c4c8c5" height="50" opacity="1" stroke="black" width="50" x="550" y="156.5" /><circle cx="575.0" cy="181.5" fill="black" r="1.0" /></g><g><rect fill="#c4c8c5" height="50" opacity="1" stroke="black" width="50" x="650" y="156.5" /><circle cx="675.0" cy="181.5" fill="black" r="1.0" /></g><g><rect fill="#c4c8c5" height="50" opacity="1" stroke="black" width="50" x="250" y="162.5" /><circle cx="275.0" cy="187.5" fill="black" r="1.0" /></g><g><rect fill="#c4c8c5" height="50" opacity="1" stroke="black" width="50" x="500" y="162.5" /><circle cx="525.0" cy="187.5" fill="black" r="1.0" /></g><g><rect fill="#c4c8c5" height="50" opacity="1" stroke="black" width="50" x="0" y="169.0" /><circle cx="25.0" cy="194.0" fill="black" r="1.0" /></g><g><rect fill="#c4c8c5" height="50" opacity="1" stroke="black" width="50" x="50" y="169.0" /><circle cx="75.0" cy="194.0" fill="black" r="1.0" /></g><g><rect fill="#c4c8c5" height="50" opacity="1" stroke="black" width="50" x="700" y="169.0" /><circle cx="725.0" cy="194.0" fill="black" r="1.0" /></g><g><rect fill="#c4c8c5" height="50" opacity="1" stroke="black" width="50" x="750" y="169.0" /><circle cx="775.0" cy="194.0" fill="black" r="1.0" /></g><g><rect fill="#c4c8c5" height="50" opacity="1" stroke="black" width="50" x="125.0" y="212.0" /><circle cx="150.0" cy="237.0" fill="black" r="1.0" /></g><g><rect fill="#c4c8c5" height="50" opacity="1" stroke="black" width="50" x="175.0" y="212.0" /><circle cx="200.0" cy="237.0" fill="black" r="1.0" /></g><g><rect fill="#c4c8c5" height="50" opacity="1" stroke="black" width="50" x="575.0" y="212.5" /><circle cx="600.0" cy="237.5" fill="black" r="1.0" /></g><g><rect fill="#c4c8c5" height="50" opacity="1" stroke="black" width="50" x="625.0" y="212.5" /><circle cx="650.0" cy="237.5" fill="black" r="1.0" /></g><g><rect fill="#c4c8c5" height="50" opacity="1" stroke="black" width="50" x="225.0" y="218.0" /><circle cx="250.0" cy="243.0" fill="black" r="1.0" /></g><g><rect fill="#c4c8c5" height="50" opacity="1" stroke="black" width="50" x="275.0" y="218.0" /><circle cx="300.0" cy="243.0" fill="black" r="1.0" /></g><g><rect fill="#c4c8c5" height="50" opacity="1" stroke="black" width="50" x="325.0" y="218.0" /><circle cx="350.0" cy="243.0" fill="black" r="1.0" /></g><g><rect fill="#c4c8c5" height="50" opacity="1" stroke="black" width="50" x="375.0" y="218.0" /><circle cx="400.0" cy="243.0" fill="black" r="1.0" /></g><g><rect fill="#c4c8c5" height="50" opacity="1" stroke="black" width="50" x="425.0" y="218.0" /><circle cx="450.0" cy="243.0" fill="black" r="1.0" /></g><g><rect fill="#c4c8c5" height="50" opacity="1" stroke="black" width="50" x="475.0" y="218.0" /><circle cx="500.0" cy="243.0" fill="black" r="1.0" /></g><g><rect fill="#c4c8c5" height="50" opacity="1" stroke="black" width="50" x="525.0" y="218.0" /><circle cx="550.0" cy="243.0" fill="black" r="1.0" /></g></svg>