<?xml version="1.0" encoding="utf-8" ?>
<svg baseProfile="tiny" height="100%" version="1.2" width="100%" xmlns="http://www.w3.org/2000/svg" xmlns:ev="http://www.w3.org/2001/xml-events" xmlns:xlink="http://www.w3.org/1999/xlink"><defs /><g><rect fill="#c4c8c5" height="50" opacity="0.5" stroke="black" width="50" x="225.0" y="0" /><text fill="black" font-size="12" text-anchor="middle" x="250.0" y="25.0">3</text><text fill="black" font-size="8" text-anchor="middle" x="250.0" y="40.0">(4.00, 1.00)</text></g><g><rect fill="#c4c8c5" height="50" opacity="0.5" stroke="black" width="50" x="675.0" y="0" /><text fill="black" font-size="12" text-anchor="middle" x="700.0" y="25.0">8</text><text fill="black" font-size="8" text-anchor="middle" x="700.0" y="40.0">(13.00, 1.00)</text></g><g><rect fill="#c4c8c5" height="50" opacity="0.5" stroke="black" width="50" x="175.0" y="6.5" /><text fill="black" font-size="12" text-anchor="middle" x="200.0" y="31.499999999999993">2</text><text fill="black" font-size="8" text-anchor="middle" x="200.0" y="46.49999999999999">(3.00, 1.13)</text></g><g><rect fill="#c4c8c5" height="50" opacity="0.5" stroke="black" width="50" x="275.0" y="6.5" /><text fill="black" font-size="12" text-anchor="middle" x="300.0" y="31.499999999999993">4</text><text fill="black" font-size="8" text-anchor="middle" x="300.0" y="46.49999999999999">(5.00, 1.13)</text></g><g><rect fill="#c4c8c5" height="50" opacity="0.5" stroke="black" width="50" x="625.0" y="6.5" /><text fill="black" font-size="12" text-anchor="middle" x="650.0" y="31.499999999999993">7</text><text fill="black" font-size="8" text-anchor="middle" x="650.0" y="46.49999999999999">(12.00, 1.13)</text></g><g><rect fill="#c4c8c5" height="50" opacity="0.5" stroke="black" width="50" x="725.0" y="6.5" /><text fill="black" font-size="12" text-anchor="middle" x="750.0" y="31.499999999999993">9</text><text fill="black" font-size="8" text-anchor="middle" x="750.0" y="46.49999999999999">(14.00, 1.13)</text></g><g><rect fill="#c4c8c5" height="50" opacity="0.5" stroke="black" width="50" x="325.0" y="12.5" /><text fill="black" font-size="12" text-anchor="middle" x="350.0" y="37.5">5</text><text fill="black" font-size="8" text-anchor="middle" x="350.0" y="52.5">(6.00, 1.25)</text></g><g><rect fill="#c4c8c5" height="50" opacity="0.5" stroke="black" width="50" x="575.0" y="12.5" /><text fill="black" font-size="12" text-anchor="middle" x="600.0" y="37.5">6</text><text fill="black" font-size="8" text-anchor="middle" x="600.0" y="52.5">(11.00, 1.25)</text></g><g><rect fill="#c4c8c5" height="50" opacity="0.5" stroke="black" width="50" x="75.0" y="19.0" /><text fill="black" font-size="12" text-anchor="middle" x="100.0" y="43.99999999999999">Esc</text><text fill="black" font-size="8" text-anchor="middle" x="100.0" y="58.99999999999999">(1.00, 1.38)</text></g><g><rect fill="#c4c8c5" height="50" opacity="0.5" stroke="black" width="50" x="125.0" y="19.0" /><text fill="black" font-size="12" text-anchor="middle" x="150.0" y="43.99999999999999">1</text><text fill="black" font-size="8" text-anchor="middle" x="150.0" y="58.99999999999999">(2.00, 1.38)</text></g><g><rect fill="#c4c8c5" height="50" opacity="0.5" stroke="black" width="50" x="775.0" y="19.0" /><text fill="black" font-size="12" text-anchor="middle" x="800.0" y="43.99999999999999">0</text><text fill="black" font-size="8" text-anchor="middle" x="800.0" y="58.99999999999999">(15.00, 1.38)</text></g><g><rect fill="#c4c8c5" height="50" opacity="0.5" stroke="black" width="50" x="825.0" y="19.0" /><text fill="black" font-size="12" text-anchor="middle" x="850.0" y="43.99999999999999">Back</text><text fill="black" font-size="8" text-anchor="middle" x="850.0" y="58.99999999999999">(16.00, 1.38)</text></g><g><rect fill="#c4c8c5" height="50" opacity="0.5" stroke="black" width="50" x="225.0" y="50.0" /><text fill="black" font-size="12" text-anchor="middle" x="250.0" y="75.0">E</text><text fill="black" font-size="8" text-anchor="middle" x="250.0" y="90.0">(4.00, 2.00)</text></g><g><rect fill="#c4c8c5" height="50" opacity="0.5" stroke="black" width="50" x="675.0" y="50.0" /><text fill="black" font-size="12" text-anchor="middle" x="700.0" y="75.0">I</text><text fill="black" font-size="8" text-anchor="middle" x="700.0" y="90.0">(13.00, 2.00)</text></g><g><rect fill="#c4c8c5" height="50" opacity="0.5" stroke="black" width="50" x="175.0" y="56.5" /><text fill="black" font-size="12" text-anchor="middle" x="200.0" y="81.5">W</text><text fill="black" font-size="8" text-anchor="middle" x="200.0" y="96.5">(3.00, 2.13)</text></g><g><rect fill="#c4c8c5" height="50" opacity="0.5" stroke="black" width="50" x="275.0" y="56.5" /><text fill="black" font-size="12" text-anchor="middle" x="300.0" y="81.5">R</text><text fill="black" font-size="8" text-anchor="middle" x="300.0" y="96.5">(5.00, 2.13)</text></g><g><rect fill="#c4c8c5" height="50" opacity="0.5" stroke="black" width="50" x="625.0" y="56.5" /><text fill="black" font-size="12" text-anchor="middle" x="650.0" y="81.5">U</text><text fill="black" font-size="8" text-anchor="middle" x="650.0" y="96.5">(12.00, 2.13)</text></g><g><rect fill="#c4c8c5" height="50" opacity="0.5" stroke="black" width="50" x="725.0" y="56.5" /><text fill="black" font-size="12" text-anchor="middle" x="750.0" y="81.5">O</text><text fill="black" font-size="8" text-anchor="middle" x="750.0" y="96.5">(14.00, 2.13)</text></g><g><rect fill="#c4c8c5" height="50" opacity="0.5" stroke="black" width="50" x="325.0" y="62.5" /><text fill="black" font-size="12" text-anchor="middle" x="350.0" y="87.5">T</text><text fill="black" font-size="8" text-anchor="middle" x="350.0" y="102.5">(6.00, 2.25)</text></g><g><rect fill="#c4c8c5" height="50" opacity="0.5" stroke="black" width="50" x="575.0" y="62.5" /><text fill="black" font-size="12" text-anchor="middle" x="600.0" y="87.5">Y</text><text fill="black" font-size="8" text-anchor="middle" x="600.0" y="102.5">(11.00, 2.25)</text></g><g><rect fill="#c4c8c5" height="50" opacity="0.5" stroke="black" width="50" x="75.0" y="69.0" /><text fill="black" font-size="12" text-anchor="middle" x="100.0" y="94.0">~</text><text fill="black" font-size="8" text-anchor="middle" x="100.0" y="109.0">(1.00, 2.38)</text></g><g><rect fill="#c4c8c5" height="50" opacity="0.5" stroke="black" width="50" x="125.0" y="69.0" /><text fill="black" font-size="12" text-anchor="middle" x="150.0" y="94.0">Q</text><text fill="black" font-size="8" text-anchor="middle" x="150.0" y="109.0">(2.00, 2.38)</text></g><g><rect fill="#c4c8c5" height="50" opacity="0.5" stroke="black" width="50" x="775.0" y="69.0" /><text fill="black" font-size="12" text-anchor="middle" x="800.0" y="94.0">P</text><text fill="black" font-size="8" text-anchor="middle" x="800.0" y="109.0">(15.00, 2.38)</text></g><g><rect fill="#c4c8c5" height="50" opacity="0.5" stroke="black" width="50" x="825.0" y="69.0" /><text fill="black" font-size="12" text-anchor="middle" x="850.0" y="94.0">\</text><text fill="black" font-size="8" text-anchor="middle" x="850.0" y="109.0">(16.00, 2.38)</text></g><g><rect fill="#c4c8c5" height="50" opacity="0.5" stroke="black" width="50" x="225.0" y="100.0" /><text fill="black" font-size="12" text-anchor="middle" x="250.0" y="125.0">D</text><text fill="black" font-size="8" text-anchor="middle" x="250.0" y="140.0">(4.00, 3.00)</text></g><g><rect fill="#c4c8c5" height="50" opacity="0.5" stroke="black" width="50" x="675.0" y="100.0" /><text fill="black" font-size="12" text-anchor="middle" x="700.0" y="125.0">K</text><text fill="black" font-size="8" text-anchor="middle" x="700.0" y="140.0">(13.00, 3.00)</text></g><g><rect fill="#c4c8c5" height="50" opacity="0.5" stroke="black" width="50" x="175.0" y="106.5" /><text fill="black" font-size="12" text-anchor="middle" x="200.0" y="131.5">S</text><text fill="black" font-size="8" text-anchor="middle" x="200.0" y="146.5">(3.00, 3.13)</text></g><g><rect fill="#c4c8c5" height="50" opacity="0.5" stroke="black" width="50" x="275.0" y="106.5" /><text fill="black" font-size="12" text-anchor="middle" x="300.0" y="131.5">F</text><text fill="black" font-size="8" text-anchor="middle" x="300.0" y="146.5">(5.00, 3.13)</text></g><g><rect fill="#c4c8c5" height="50" opacity="0.5" stroke="black" width="50" x="625.0" y="106.5" /><text fill="black" font-size="12" text-anchor="middle" x="650.0" y="131.5">J</text><text fill="black" font-size="8" text-anchor="middle" x="650.0" y="146.5">(12.00, 3.13)</text></g><g><rect fill="#c4c8c5" height="50" opacity="0.5" stroke="black" width="50" x="725.0" y="106.5" /><text fill="black" font-size="12" text-anchor="middle" x="750.0" y="131.5">L</text><text fill="black" font-size="8" text-anchor="middle" x="750.0" y="146.5">(14.00, 3.13)</text></g><g><rect fill="#c4c8c5" height="50" opacity="0.5" stroke="black" width="50" x="325.0" y="112.5" /><text fill="black" font-size="12" text-anchor="middle" x="350.0" y="137.5">G</text><text fill="black" font-size="8" text-anchor="middle" x="350.0" y="152.5">(6.00, 3.25)</text></g><g><rect fill="#c4c8c5" height="50" opacity="0.5" stroke="black" width="50" x="575.0" y="112.5" /><text fill="black" font-size="12" text-anchor="middle" x="600.0" y="137.5">H</text><text fill="black" font-size="8" text-anchor="middle" x="600.0" y="152.5">(11.00, 3.25)</text></g><g><rect fill="#c4c8c5" height="50" opacity="0.5" stroke="black" width="50" x="75.0" y="119.0" /><text fill="black" font-size="12" text-anchor="middle" x="100.0" y="144.0">Tab</text><text fill="black" font-size="8" text-anchor="middle" x="100.0" y="159.0">(1.00, 3.38)</text></g><g><rect fill="#c4c8c5" height="50" opacity="0.5" stroke="black" width="50" x="125.0" y="119.0" /><text fill="black" font-size="12" text-anchor="middle" x="150.0" y="144.0">A</text><text fill="black" font-size="8" text-anchor="middle" x="150.0" y="159.0">(2.00, 3.38)</text></g><g><rect fill="#c4c8c5" height="50" opacity="0.5" stroke="black" width="50" x="775.0" y="119.0" /><text fill="black" font-size="12" text-anchor="middle" x="800.0" y="144.0">;</text><text fill="black" font-size="8" text-anchor="middle" x="800.0" y="159.0">(15.00, 3.38)</text></g><g><rect fill="#c4c8c5" height="50" opacity="0.5" stroke="black" width="50" x="825.0" y="119.0" /><text fill="black" font-size="12" text-anchor="middle" x="850.0" y="144.0">'</text><text fill="black" font-size="8" text-anchor="middle" x="850.0" y="159.0">(16.00, 3.38)</text></g><g><rect fill="#c4c8c5" height="50" opacity="0.5" stroke="black" width="50" x="225.0" y="150.0" /><text fill="black" font-size="12" text-anchor="middle" x="250.0" y="175.0">X</text><text fill="black" font-size="8" text-anchor="middle" x="250.0" y="190.0">(4.00, 4.00)</text></g><g><rect fill="#c4c8c5" height="50" opacity="0.5" stroke="black" width="50" x="675.0" y="150.0" /><text fill="black" font-size="12" text-anchor="middle" x="700.0" y="175.0">M</text><text fill="black" font-size="8" text-anchor="middle" x="700.0" y="190.0">(13.00, 4.00)</text></g><g><rect fill="#c4c8c5" height="50" opacity="0.5" stroke="black" width="50" x="175.0" y="156.5" /><text fill="black" font-size="12" text-anchor="middle" x="200.0" y="181.5">Z</text><text fill="black" font-size="8" text-anchor="middle" x="200.0" y="196.5">(3.00, 4.13)</text></g><g><rect fill="#c4c8c5" height="50" opacity="0.5" stroke="black" width="50" x="275.0" y="156.5" /><text fill="black" font-size="12" text-anchor="middle" x="300.0" y="181.5">C</text><text fill="black" font-size="8" text-anchor="middle" x="300.0" y="196.5">(5.00, 4.13)</text></g><g><rect fill="#c4c8c5" height="50" opacity="0.5" stroke="black" width="50" x="625.0" y="156.5" /><text fill="black" font-size="12" text-anchor="middle" x="650.0" y="181.5">N</text><text fill="black" font-size="8" text-anchor="middle" x="650.0" y="196.5">(12.00, 4.13)</text></g><g><rect fill="#c4c8c5" height="50" opacity="0.5" stroke="black" width="50" x="725.0" y="156.5" /><text fill="black" font-size="12" text-anchor="middle" x="750.0" y="181.5">,</text><text fill="black" font-size="8" text-anchor="middle" x="750.0" y="196.5">(14.00, 4.13)</text></g><g><rect fill="#c4c8c5" height="50" opacity="0.5" stroke="black" width="50" x="325.0" y="162.5" /><text fill="black" font-size="12" text-anchor="middle" x="350.0" y="187.5">V</text><text fill="black" font-size="8" text-anchor="middle" x="350.0" y="202.5">(6.00, 4.25)</text></g><g><rect fill="#c4c8c5" height="50" opacity="0.5" stroke="black" width="50" x="575.0" y="162.5" /><text fill="black" font-size="12" text-anchor="middle" x="600.0" y="187.5">B</text><text fill="black" font-size="8" text-anchor="middle" x="600.0" y="202.5">(11.00, 4.25)</text></g><g><rect fill="#c4c8c5" height="50" opacity="0.5" stroke="black" width="50" x="75.0" y="169.0" /><text fill="black" font-size="12" text-anchor="middle" x="100.0" y="194.0">Ctrl</text><text fill="black" font-size="8" text-anchor="middle" x="100.0" y="209.0">(1.00, 4.38)</text></g><g><rect fill="#c4c8c5" height="50" opacity="0.5" stroke="black" width="50" x="125.0" y="169.0" /><text fill="black" font-size="12" text-anchor="middle" x="150.0" y="194.0">Option</text><text fill="black" font-size="8" text-anchor="middle" x="150.0" y="209.0">(2.00, 4.38)</text></g><g><rect fill="#c4c8c5" height="50" opacity="0.5" stroke="black" width="50" x="775.0" y="169.0" /><text fill="black" font-size="12" text-anchor="middle" x="800.0" y="194.0">.</text><text fill="black" font-size="8" text-anchor="middle" x="800.0" y="209.0">(15.00, 4.38)</text></g><g><rect fill="#c4c8c5" height="50" opacity="0.5" stroke="black" width="50" x="825.0" y="169.0" /><text fill="black" font-size="12" text-anchor="middle" x="850.0" y="194.0">/</text><text fill="black" font-size="8" text-anchor="middle" x="850.0" y="209.0">(16.00, 4.38)</text></g><g><rect fill="#c4c8c5" height="50" opacity="0.5" stroke="black" width="50" x="250.0" y="212.0" /><text fill="black" font-size="12" text-anchor="middle" x="275.0" y="237.0">▼</text><text fill="black" font-size="8" text-anchor="middle" x="275.0" y="252.0">(4.50, 5.24)</text></g><g><rect fill="#c4c8c5" height="50" opacity="0.5" stroke="black" width="50" x="650.0" y="212.5" /><text fill="black" font-size="12" text-anchor="middle" x="675.0" y="237.5">▲</text><text fill="black" font-size="8" text-anchor="middle" x="675.0" y="252.5">(12.50, 5.25)</text></g><g><rect fill="#c4c8c5" height="50" opacity="0.5" stroke="black" width="50" x="300.0" y="218.0" /><text fill="black" font-size="12" text-anchor="middle" x="325.0" y="243.00000000000003">⌘</text><text fill="black" font-size="8" text-anchor="middle" x="325.0" y="258.0">(5.50, 5.36)</text></g><g><rect fill="#c4c8c5" height="50" opacity="0.5" stroke="black" width="50" x="600.0" y="218.0" /><text fill="black" font-size="12" text-anchor="middle" x="625.0" y="243.00000000000003">Enter</text><text fill="black" font-size="8" text-anchor="middle" x="625.0" y="258.0">(11.50, 5.36)</text></g><g><rect fill="#333333" height="50" opacity="0.5" stroke="black" width="50" x="100.0" y="462.0" /><text fill="black" font-size="12" text-anchor="middle" x="125.0" y="487.0" /><text fill="black" font-size="8" text-anchor="middle" x="125.0" y="502.0">(1.50, 10.24)</text></g><g><rect fill="#c4c8c5" height="50" opacity="0.5" stroke="black" width="50" x="100.0" y="513.0" /><text fill="black" font-size="12" text-anchor="middle" x="125.0" y="538.0000000000001">Back</text><text fill="black" font-size="8" text-anchor="middle" x="125.0" y="553.0000000000001">(1.50, 11.26)</text></g><g><rect fill="#333333" height="50" opacity="0.5" stroke="black" width="50" x="0.0" y="462.0" /><text fill="black" font-size="12" text-anchor="middle" x="25.0" y="487.0000000000001" /><text fill="black" font-size="8" text-anchor="middle" x="25.0" y="502.0000000000001">(-0.50, 10.24)</text></g><g><rect fill="#c4c8c5" height="50" opacity="0.5" stroke="black" width="50" x="0.0" y="513.0" /><text fill="black" font-size="12" text-anchor="middle" x="25.0" y="538.0000000000001">Space</text><text fill="black" font-size="8" text-anchor="middle" x="25.0" y="553.0000000000001">(-0.50, 11.26)</text></g></svg>